<svg xmlns="http://www.w3.org/2000/svg" version="1.1" xmlns:xlink="http://www.w3.org/1999/xlink" xmlns:svgjs="http://svgjs.dev/svgjs" width="100%" height="100%" viewBox="0 0 1000 600"><rect width="1000" height="600" x="0" y="0" fill="#295f2d"/><g><rect width="333.3333333333333" height="333.3333333333333" rx="13.333333333333334" ry="13.333333333333334" y="235.7191781183875" fill="#ffe67c" transform="matrix(0.5854885898827404,0,0,0.5854885898827407,0,64.40771274220896)" x="213.4969024658203"/><path d="M355.93511322011005 477.3858330987061L334.923089814535 477.3858330987061L334.923089814535 327.3858376855163L425.40404897158936 327.3858376855163L425.40404897158936 345.361789039642L355.93511322011005 345.361789039642L355.93511322011005 390.6022686181692L417.61847806737774 390.6022686181692L417.61847806737774 408.33773901772474L355.93511322011005 408.33773901772474L355.93511322011005 477.3858330987061Z " fill="#295f2d" transform="matrix(0.5854885898827404,0,0,0.5854885898827407,0,64.40771274220896)"/><path d="M649.6054373225573 474.77133665501117L630.1635683430133 474.77133665501117L630.1635683430133 335.98031203709274L713.8832044351846 335.98031203709274L713.8832044351846 352.61298392517193L649.6054373225573 352.61298392517193L649.6054373225573 394.4728019712576L706.6794217946954 394.4728019712576L706.6794217946954 410.88296319862667L649.6054373225573 410.88296319862667L649.6054373225573 474.77133665501117ZM761.5282996597324 461.36506934722826L761.5282996597324 461.36506934722826Q768.1479918158576 461.36506934722826 773.2657370121897 461.05911718875194Q778.355668375933 460.7531650302755 781.7767697843506 459.94656388520144L781.7767697843506 459.94656388520144L781.7767697843506 428.90632671614395Q779.7741738379598 427.90502874294856 775.2683329585805 427.2096829282295Q770.7624920792011 426.51433711351046 764.3374967511974 426.51433711351046L764.3374967511974 426.51433711351046Q760.1376080302944 426.51433711351046 755.4370703227937 427.0984275978745Q750.7365326152931 427.71033191482724 746.8147822202777 429.60167253086297Q742.9208456578511 431.5208269794875 740.3063453945076 434.8306730575501Q737.7196589637529 438.1127053030239 737.7196589637529 443.5364026578323L737.7196589637529 443.5364026578323Q737.7196589637529 453.5493823897864 744.1168404591679 457.4433189522129Q750.514021954583 461.36506934722826 761.5282996597324 461.36506934722826ZM759.942911202173 368.0218471793456L759.942911202173 368.0218471793456Q771.1518857354438 368.0218471793456 778.8563173625307 370.9422996011656Q786.5607489896175 373.83493819039677 791.289100529707 379.14738021485016Q795.9896382372076 384.45982223930355 797.9922341835984 391.7748602101477Q799.9948301299892 399.0620843484032 799.9948301299892 407.8790692790405L799.9948301299892 407.8790692790405L799.9948301299892 472.9634375367417Q797.575026694767 473.3806450255731 793.2916964760977 474.07599084029215Q788.9805524248397 474.77133665501117 783.5568550700314 475.3832409719639Q778.1609715478116 475.96733145632794 771.8472315501629 476.4679804429256Q765.5334915525141 476.96862942952333 759.3310068852203 476.96862942952333L759.3310068852203 476.96862942952333Q750.514021954583 476.96862942952333 743.1155424859725 475.1607303112539Q735.7170630173621 473.3806450255731 730.2933656625536 469.45889463055784Q724.897482140334 465.5649580681312 721.8935882207477 459.1399627401274Q718.8896943011615 452.7427812447123 718.8896943011615 443.7310994859537L718.8896943011615 443.7310994859537Q718.8896943011615 435.1088113834377 722.3942372073454 428.90632671614395Q725.8987801135294 422.70384204885016 731.9065679527017 418.8933469841899Q737.9143557918742 415.0828519195296 745.9247395774374 413.3027666338489Q753.9351233630007 411.4948675155794 762.7521082936379 411.4948675155794L762.7521082936379 411.4948675155794Q765.5334915525141 411.4948675155794 768.5373854721003 411.8008196740558Q771.5412793916864 412.0789579999434 774.2670349853851 412.57960698654114Q776.9649767464949 413.08025597313883 778.9675726928857 413.4974634619702Q780.9701686392765 413.8868571182129 781.7767697843506 414.0815539463342L781.7767697843506 414.0815539463342L781.7767697843506 408.8803672522359Q781.7767697843506 404.2910848750903 780.7754718111552 399.78524399571097Q779.7741738379598 395.27940311633165 777.1596735746162 391.7748602101477Q774.5451733112727 388.27031730396385 770.0393324318934 386.15646602721796Q765.5334915525141 384.0426147504721 758.3297089120249 384.0426147504721L758.3297089120249 384.0426147504721Q749.1233303251449 384.0426147504721 742.2254998431322 385.3498648821439Q735.2998555285307 386.65711501381566 731.9065679527017 388.04780664325375L731.9065679527017 388.04780664325375L729.7092751781896 372.63894338908Q733.2972595821398 371.02574109893186 741.7248508565344 369.5237941391388Q750.1246282983403 368.0218471793456 759.942911202173 368.0218471793456ZM889.9169508894543 370.6363474426892L909.1363092082881 370.6363474426892Q901.3206222508463 399.86868549347724 890.8069935322945 426.7090339416318Q880.2933648137428 453.5493823897864 870.4750819099102 474.77133665501117L870.4750819099102 474.77133665501117L853.6477131937096 474.77133665501117Q843.8572441224655 453.5493823897864 833.3436154039139 426.7090339416318Q822.8299866853622 399.86868549347724 815.0142997279203 370.6363474426892L815.0142997279203 370.6363474426892L835.0402591918282 370.6363474426892Q837.4322487944618 380.4546303465219 840.7420948725244 391.5523495494376Q844.051940950587 402.6778825849421 847.7511806848922 413.58090495973653Q851.4504204191974 424.5117411671197 855.2609154838577 434.71941772719504Q859.071410548518 444.9270942872704 862.4646981243468 452.93747807283364L862.4646981243468 452.93747807283364Q865.8857995327645 444.9270942872704 869.668480764836 434.71941772719504Q873.4789758294963 424.5117411671197 877.1782155638016 413.58090495973653Q880.9052691306956 402.6778825849421 884.1873013761693 391.5523495494376Q887.4971474542319 380.4546303465219 889.9169508894543 370.6363474426892L889.9169508894543 370.6363474426892ZM946.9909353615922 370.6363474426892L946.9909353615922 474.77133665501117L928.3556675271223 474.77133665501117L928.3556675271223 370.6363474426892L946.9909353615922 370.6363474426892ZM937.5620461140021 351.80638278009786L937.5620461140021 351.80638278009786Q932.5555562480251 351.80638278009786 929.0510133418412 348.4965367020353Q925.5464704356573 345.2145044565615 925.5464704356573 339.59611027363167L925.5464704356573 339.59611027363167Q925.5464704356573 333.97771609070196 929.0510133418412 330.69568384522813Q932.5555562480251 327.3858377671655 937.5620461140021 327.3858377671655L937.5620461140021 327.3858377671655Q942.5685359799792 327.3858377671655 946.0730788861631 330.69568384522813Q949.5776217923469 333.97771609070196 949.5776217923469 339.59611027363167L949.5776217923469 339.59611027363167Q949.5776217923469 345.2145044565615 946.0730788861631 348.4965367020353Q942.5685359799792 351.80638278009786 937.5620461140021 351.80638278009786ZM1024.2855761257597 477.16332625764466L1024.2855761257597 477.16332625764466Q1011.658096130462 477.16332625764466 1002.1457653851057 473.15813436486303Q992.6334346397493 469.1529424720814 986.1249978139792 461.9491598315922Q979.6165609882091 454.7453771911031 976.4179702405015 444.8436527895041Q973.2193794927939 434.91411455531636 973.2193794927939 422.89853887697154L973.2193794927939 422.89853887697154Q973.2193794927939 410.88296319862667 976.723922398978 400.86998346667264Q980.2284653051619 390.8570037347186 986.625646800577 383.54196576387443Q993.0506421285808 376.254741625619 1002.340462213227 372.1382944024823Q1011.658096130462 368.0218471793456 1023.0895813244429 368.0218471793456L1023.0895813244429 368.0218471793456Q1030.0986671368107 368.0218471793456 1037.1077529491786 369.2456558132512Q1044.1168387615464 370.4416506145679 1050.5140202569614 373.0283370453227L1050.5140202569614 373.0283370453227L1046.3141315360585 388.8544077883278Q1042.1142428151556 386.851811841937 1036.6071039625808 385.65581704062026Q1031.099965110006 384.45982223930355 1024.8696666101237 384.45982223930355L1024.8696666101237 384.45982223930355Q1009.2661065278286 384.45982223930355 1000.9497705837889 394.27810514313626Q992.6334346397493 404.0685742143802 992.6334346397493 422.89853887697154L992.6334346397493 422.89853887697154Q992.6334346397493 431.32613015136616 994.5525890883738 438.335215963734Q996.4439297044096 445.3443017761018 1000.5603769275463 450.35079164207883Q1004.6490103180943 455.35728150805585 1011.0740056460979 458.05522326916565Q1017.471187141513 460.7531650302755 1026.6775657283931 460.7531650302755L1026.6775657283931 460.7531650302755Q1034.1038590295923 460.7531650302755 1040.1116468687646 459.3624734008375Q1046.1194347079372 457.94396793881066 1049.512722283766 456.35857948125124L1049.512722283766 456.35857948125124L1052.1272225471096 471.96213956354626Q1050.5140202569614 472.9634375367417 1047.5101263373751 473.8812940121708Q1044.5062324177889 474.77133665501117 1040.6957373531286 475.4666824697302Q1036.8852422884684 476.16202828444926 1032.6019120697993 476.6626772710469Q1028.2907680185413 477.16332625764466 1024.2855761257597 477.16332625764466ZM1161.4633984535299 422.70384204885016L1161.4633984535299 422.70384204885016Q1161.4633984535299 435.1088113834377 1157.847600216991 445.1217911153918Q1154.2596158130407 455.13477084734575 1147.7511789872706 462.36636732042365Q1141.2427421615002 469.57014996091283 1132.2310604027418 473.4640865233394Q1123.2193786439832 477.38583691835476 1112.5944945950764 477.38583691835476L1112.5944945950764 477.38583691835476Q1101.9696105461696 477.38583691835476 1092.957928787411 473.4640865233394Q1083.9462470286524 469.57014996091283 1077.4378102028822 462.36636732042365Q1070.9293733771121 455.13477084734575 1067.3413889731619 445.1217911153918Q1063.725590736623 435.1088113834377 1063.725590736623 422.70384204885016L1063.725590736623 422.70384204885016Q1063.725590736623 410.493569542384 1067.3413889731619 400.36933448007494Q1070.9293733771121 390.27291325035463 1077.4378102028822 383.04131677727673Q1083.9462470286524 375.83753413678755 1092.957928787411 371.943597574361Q1101.9696105461696 368.0218471793456 1112.5944945950764 368.0218471793456L1112.5944945950764 368.0218471793456Q1123.2193786439832 368.0218471793456 1132.2310604027418 371.943597574361Q1141.2427421615002 375.83753413678755 1147.7511789872706 383.04131677727673Q1154.2596158130407 390.27291325035463 1157.847600216991 400.36933448007494Q1161.4633984535299 410.493569542384 1161.4633984535299 422.70384204885016ZM1142.021529473986 422.70384204885016L1142.021529473986 422.70384204885016Q1142.021529473986 405.0698721875756 1134.1224010187775 394.77875412973395Q1126.2232725635695 384.45982223930355 1112.5944945950764 384.45982223930355L1112.5944945950764 384.45982223930355Q1098.9657166265836 384.45982223930355 1091.0665881713753 394.77875412973395Q1083.167459716167 405.0698721875756 1083.167459716167 422.70384204885016L1083.167459716167 422.70384204885016Q1083.167459716167 440.3378119101248 1091.0665881713753 450.6289299679664Q1098.9657166265836 460.94786185839683 1112.5944945950764 460.94786185839683L1112.5944945950764 460.94786185839683Q1126.2232725635695 460.94786185839683 1134.1224010187775 450.6289299679664Q1142.021529473986 440.3378119101248 1142.021529473986 422.70384204885016ZM1187.6918425847316 474.77133665501117L1187.6918425847316 373.64024136227545Q1194.0890240801468 372.02703907212725 1204.7139081290534 370.24695378644657Q1215.3387921779604 368.4390546681771 1229.134453141986 368.4390546681771L1229.134453141986 368.4390546681771Q1241.5672363091621 368.4390546681771 1249.7723169228466 371.943597574361Q1257.9773975365313 375.4481404805449 1262.900445904742 381.7618804781937Q1267.7956804403639 388.04780664325375 1269.7982763867549 396.864791573891Q1271.8008723331454 405.68177650452833 1271.8008723331454 416.3066605534351L1271.8008723331454 416.3066605534351L1271.8008723331454 474.77133665501117L1253.1656044986755 474.77133665501117L1253.1656044986755 420.31185244621673Q1253.1656044986755 410.68826637050535 1251.8861681995925 403.87387738625887Q1250.5789180679208 397.0594884020124 1247.5750241483345 392.8595996811094Q1244.5711302287482 388.6597109602065 1239.5646403627713 386.7683703441707Q1234.5581504967943 384.8492158955462 1227.131857195595 384.8492158955462L1227.131857195595 384.8492158955462Q1224.1279632760088 384.8492158955462 1220.9293725283014 385.0439127236675Q1217.7307817805938 385.2664233843776 1214.8381431913626 385.5445617102652Q1211.9176907695428 385.8505138687416 1209.6091426646756 386.267721357573Q1207.3284083923973 386.65711501381566 1206.3271104192017 386.851811841937L1206.3271104192017 386.851811841937L1206.3271104192017 474.77133665501117L1187.6918425847316 474.77133665501117ZM1324.6749680843805 463.95175577798307L1324.6749680843805 463.95175577798307Q1324.6749680843805 469.3754531327915 1321.0591698478415 473.3806450255731Q1317.4711854438915 477.38583691835476 1311.2408869440092 477.38583691835476L1311.2408869440092 477.38583691835476Q1305.0384022767153 477.38583691835476 1301.450417872765 473.3806450255731Q1297.834619636226 469.3754531327915 1297.834619636226 463.95175577798307L1297.834619636226 463.95175577798307Q1297.834619636226 458.5558722557634 1301.450417872765 454.5506803629818Q1305.0384022767153 450.54548847020016 1311.2408869440092 450.54548847020016L1311.2408869440092 450.54548847020016Q1317.4711854438915 450.54548847020016 1321.0591698478415 454.5506803629818Q1324.6749680843805 458.5558722557634 1324.6749680843805 463.95175577798307ZM1370.5399780232478 370.6363474426892L1370.5399780232478 474.77133665501117L1351.904710188778 474.77133665501117L1351.904710188778 370.6363474426892L1370.5399780232478 370.6363474426892ZM1361.111088775658 351.80638278009786L1361.111088775658 351.80638278009786Q1356.1045989096808 351.80638278009786 1352.6000560034968 348.4965367020353Q1349.095513097313 345.2145044565615 1349.095513097313 339.59611027363167L1349.095513097313 339.59611027363167Q1349.095513097313 333.97771609070196 1352.6000560034968 330.69568384522813Q1356.1045989096808 327.3858377671655 1361.111088775658 327.3858377671655L1361.111088775658 327.3858377671655Q1366.1175786416347 327.3858377671655 1369.6221215478188 330.69568384522813Q1373.1266644540026 333.97771609070196 1373.1266644540026 339.59611027363167L1373.1266644540026 339.59611027363167Q1373.1266644540026 345.2145044565615 1369.6221215478188 348.4965367020353Q1366.1175786416347 351.80638278009786 1361.111088775658 351.80638278009786ZM1494.4784160387678 422.70384204885016L1494.4784160387678 422.70384204885016Q1494.4784160387678 435.1088113834377 1490.8904316348176 445.1217911153918Q1487.2746333982786 455.13477084734575 1480.7661965725083 462.36636732042365Q1474.2577597467384 469.57014996091283 1465.2460779879798 473.4640865233394Q1456.2343962292211 477.38583691835476 1445.637326012903 477.38583691835476L1445.637326012903 477.38583691835476Q1435.0124419639965 477.38583691835476 1426.0007602052378 473.4640865233394Q1416.9890784464792 469.57014996091283 1410.4806416207089 462.36636732042365Q1403.9722047949388 455.13477084734575 1400.3564065584 445.1217911153918Q1396.7684221544496 435.1088113834377 1396.7684221544496 422.70384204885016L1396.7684221544496 422.70384204885016Q1396.7684221544496 410.493569542384 1400.3564065584 400.36933448007494Q1403.9722047949388 390.27291325035463 1410.4806416207089 383.04131677727673Q1416.9890784464792 375.83753413678755 1426.0007602052378 371.943597574361Q1435.0124419639965 368.0218471793456 1445.637326012903 368.0218471793456L1445.637326012903 368.0218471793456Q1456.2343962292211 368.0218471793456 1465.2460779879798 371.943597574361Q1474.2577597467384 375.83753413678755 1480.7661965725083 383.04131677727673Q1487.2746333982786 390.27291325035463 1490.8904316348176 400.36933448007494Q1494.4784160387678 410.493569542384 1494.4784160387678 422.70384204885016ZM1475.0643608918124 422.70384204885016L1475.0643608918124 422.70384204885016Q1475.0643608918124 405.0698721875756 1467.1652324366044 394.77875412973395Q1459.2382901488072 384.45982223930355 1445.637326012903 384.45982223930355L1445.637326012903 384.45982223930355Q1432.0085480444102 384.45982223930355 1424.109419589202 394.77875412973395Q1416.182477301405 405.0698721875756 1416.182477301405 422.70384204885016L1416.182477301405 422.70384204885016Q1416.182477301405 440.3378119101248 1424.109419589202 450.6289299679664Q1432.0085480444102 460.94786185839683 1445.637326012903 460.94786185839683L1445.637326012903 460.94786185839683Q1459.2382901488072 460.94786185839683 1467.1652324366044 450.6289299679664Q1475.0643608918124 440.3378119101248 1475.0643608918124 422.70384204885016Z " fill="#ffe67c" transform="matrix(0.5854885898827404,0,0,0.5854885898827407,0,64.40771274220896)"/></g></svg>